<?xml version="1.0" encoding="UTF-8"?>
<svg xmlns="http://www.w3.org/2000/svg" xmlns:xlink="http://www.w3.org/1999/xlink" width="230px" height="63px" viewBox="0 0 231 63" version="1.1">
<g id="surface1">
<path style=" stroke:none;fill-rule:nonzero;fill:rgb(0%,0%,0%);fill-opacity:1;" d="M 21.835938 13.59375 C 20.03125 15.140625 8.121094 44.226562 8.121094 47.136719 C 8.121094 47.769531 8.933594 48.773438 9.925781 49.3125 C 10.917969 49.863281 11.730469 50.863281 11.730469 51.5 C 11.730469 52.40625 13.625 52.953125 17.867188 53.316406 C 21.207031 53.679688 25.265625 54.226562 26.980469 54.496094 C 29.597656 54.953125 29.957031 54.769531 29.507812 53.589844 C 29.144531 52.585938 29.777344 51.679688 31.761719 50.773438 C 33.296875 49.953125 34.832031 49.5 35.191406 49.773438 C 35.550781 49.953125 37.898438 43.226562 40.515625 34.773438 C 44.035156 23.5 45.117188 18.683594 44.667969 16.679688 C 43.945312 13.410156 43.582031 13.320312 31.941406 12.503906 C 24.90625 12.046875 23.460938 12.226562 21.835938 13.59375 Z M 42.050781 16.773438 C 42.320312 17.140625 40.425781 24.140625 37.808594 32.410156 L 33.117188 47.5 L 29.867188 47.5 C 25.714844 47.5 10.738281 45.859375 10.285156 45.40625 C 10.105469 45.226562 12.453125 38.410156 15.519531 30.316406 L 21.207031 15.5 L 31.3125 15.863281 C 36.90625 16.046875 41.6875 16.5 42.050781 16.773438 Z M 42.050781 16.773438 "/>
<path style=" stroke:none;fill-rule:nonzero;fill:rgb(0%,0%,0%);fill-opacity:1;" d="M 113.0625 17.503906 C 109.90625 18.773438 109.183594 21.410156 109.183594 32.042969 C 109.183594 41.5 109.273438 42.222656 111.441406 44.316406 C 113.964844 46.953125 116.042969 47.136719 118.929688 45.136719 C 121.636719 43.316406 121.726562 38.410156 119.109375 38.410156 C 117.9375 38.410156 117.304688 39.042969 117.304688 40.136719 C 117.304688 42.5 115.769531 43.40625 114.144531 42.042969 C 112.433594 40.679688 112.160156 23.046875 113.785156 21.410156 C 115.230469 19.953125 117.304688 20.957031 117.304688 23.046875 C 117.304688 24.140625 117.9375 24.773438 119.109375 24.773438 C 120.464844 24.773438 120.914062 24.140625 120.914062 22.140625 C 120.914062 18.226562 117.035156 15.957031 113.0625 17.503906 Z M 113.0625 17.503906 "/>
<path style=" stroke:none;fill-rule:nonzero;fill:rgb(0%,0%,0%);fill-opacity:1;" d="M 133.367188 25.410156 L 133.097656 34.316406 L 130.929688 25.863281 C 128.765625 17.863281 128.582031 17.503906 126.148438 17.503906 L 123.621094 17.503906 L 123.621094 26.046875 C 123.621094 30.683594 123.890625 37.046875 124.164062 40.136719 C 124.703125 44.773438 125.066406 45.679688 126.507812 45.679688 C 128.042969 45.679688 128.132812 45.046875 127.683594 35.496094 L 127.230469 25.226562 L 129.035156 30.683594 C 130.027344 33.679688 131.292969 38.316406 131.832031 40.953125 C 132.824219 45.046875 133.1875 45.679688 135.082031 45.679688 L 137.246094 45.679688 L 136.976562 31.410156 C 136.707031 18.683594 136.523438 17.046875 135.171875 16.773438 C 133.816406 16.5 133.546875 17.503906 133.367188 25.410156 Z M 133.367188 25.410156 "/>
<path style=" stroke:none;fill-rule:nonzero;fill:rgb(0%,0%,0%);fill-opacity:1;" d="M 141.667969 18.410156 C 140.042969 20.042969 139.863281 21.410156 139.863281 31.5 C 139.863281 42.679688 139.863281 42.863281 142.300781 44.773438 C 144.015625 46.132812 145.457031 46.5 147.082031 46.132812 C 151.683594 44.957031 152.042969 43.863281 151.773438 31.320312 C 151.59375 20.867188 151.414062 19.59375 149.699219 18.136719 C 147.171875 16.046875 143.925781 16.136719 141.667969 18.410156 Z M 147.804688 31.046875 C 148.074219 41.320312 147.351562 44.5 145.277344 42.40625 C 144.195312 41.320312 142.929688 23.863281 143.832031 21.589844 C 144.105469 20.777344 145.097656 20.226562 145.910156 20.410156 C 147.351562 20.683594 147.535156 22.046875 147.804688 31.046875 Z M 147.804688 31.046875 "/>
<path style=" stroke:none;fill-rule:nonzero;fill:rgb(0%,0%,0%);fill-opacity:1;" d="M 156.917969 18.5 C 154.210938 21.226562 155.023438 25.773438 159.625 32.863281 C 163.503906 38.953125 164.136719 41.5 162.0625 42.316406 C 160.707031 42.863281 159.445312 41.773438 158.542969 39.042969 C 157.730469 36.773438 155.746094 37.589844 155.382812 40.320312 C 154.84375 45.136719 160.4375 48.042969 164.226562 44.957031 C 167.566406 42.222656 167.023438 37.773438 162.421875 30.683594 C 160.074219 27.136719 158.8125 24.046875 158.992188 22.773438 C 159.355469 20.042969 161.699219 20.042969 162.871094 22.773438 C 163.867188 25.136719 166.300781 25.042969 166.753906 22.773438 C 167.113281 20.683594 163.054688 16.589844 160.617188 16.589844 C 159.625 16.589844 157.910156 17.503906 156.917969 18.5 Z M 156.917969 18.5 "/>
<path style=" stroke:none;fill-rule:nonzero;fill:rgb(0%,0%,0%);fill-opacity:1;" d="M 184.527344 18.5 C 182.542969 20.59375 181.914062 29.046875 182.996094 38.410156 C 183.535156 43.496094 183.898438 44.40625 185.972656 45.40625 C 189.222656 46.953125 193.824219 45.40625 194.546875 42.5 C 194.816406 41.320312 194.90625 35.589844 194.726562 29.773438 C 194.457031 20.5 194.273438 19.046875 192.742188 17.863281 C 190.214844 16.046875 186.425781 16.320312 184.527344 18.5 Z M 190.753906 24.410156 C 191.027344 26.773438 191.296875 31.589844 191.296875 35.226562 C 191.296875 40.589844 191.027344 41.953125 189.761719 42.40625 C 187.328125 43.40625 186.875 42.042969 186.785156 32.953125 C 186.605469 20.042969 186.605469 20.226562 188.5 20.226562 C 189.761719 20.226562 190.304688 21.136719 190.753906 24.410156 Z M 190.753906 24.410156 "/>
<path style=" stroke:none;fill-rule:nonzero;fill:rgb(0%,0%,0%);fill-opacity:1;" d="M 82.566406 18.410156 C 81.753906 19.773438 82.925781 21.136719 84.910156 21.136719 C 86.535156 21.136719 86.625 21.863281 86.625 33.410156 C 86.625 45.046875 86.714844 45.679688 88.429688 45.679688 C 90.144531 45.679688 90.234375 45.046875 90.234375 33.5 C 90.234375 21.5 90.234375 21.226562 92.21875 20.957031 C 93.394531 20.777344 94.386719 19.953125 94.566406 19.046875 C 94.835938 17.683594 94.113281 17.503906 88.972656 17.503906 C 85.722656 17.503906 82.835938 17.863281 82.566406 18.410156 Z M 82.566406 18.410156 "/>
<path style=" stroke:none;fill-rule:nonzero;fill:rgb(0%,0%,0%);fill-opacity:1;" d="M 96.640625 28.589844 C 96.640625 34.773438 96.910156 41.136719 97.183594 42.679688 C 97.632812 45.679688 97.722656 45.679688 102.597656 45.679688 C 106.746094 45.679688 107.46875 45.40625 107.199219 44.132812 C 107.019531 43.046875 105.933594 42.40625 103.949219 42.222656 C 101.152344 41.953125 101.0625 41.863281 101.0625 37.40625 C 101.0625 33.226562 101.242188 32.953125 103.316406 32.953125 C 104.941406 32.953125 105.574219 32.503906 105.574219 31.136719 C 105.574219 29.773438 104.941406 29.320312 103.316406 29.320312 C 101.242188 29.320312 101.0625 28.957031 101.0625 25.226562 C 101.0625 21.316406 101.152344 21.136719 103.769531 21.136719 C 105.84375 21.136719 106.476562 20.777344 106.476562 19.316406 C 106.476562 17.683594 105.84375 17.503906 101.511719 17.503906 L 96.550781 17.503906 Z M 96.640625 28.589844 "/>
<path style=" stroke:none;fill-rule:nonzero;fill:rgb(0%,0%,0%);fill-opacity:1;" d="M 168.285156 18.410156 C 167.476562 19.773438 168.648438 21.136719 170.632812 21.136719 C 172.167969 21.136719 172.347656 21.863281 172.4375 29.046875 C 172.527344 33.5 172.4375 37.589844 172.347656 38.316406 C 172.257812 39.042969 172.4375 40.953125 172.800781 42.679688 C 173.160156 44.863281 173.792969 45.679688 175.054688 45.679688 C 176.769531 45.679688 176.859375 44.957031 176.859375 33.5 C 176.859375 22.140625 176.949219 21.316406 178.664062 20.867188 C 179.65625 20.59375 180.46875 19.773438 180.46875 18.957031 C 180.46875 17.773438 179.386719 17.503906 174.695312 17.503906 C 171.445312 17.503906 168.558594 17.863281 168.285156 18.410156 Z M 168.285156 18.410156 "/>
<path style=" stroke:none;fill-rule:nonzero;fill:rgb(0%,0%,0%);fill-opacity:1;" d="M 197.972656 18.773438 C 197.703125 19.503906 197.703125 25.136719 197.972656 31.320312 C 198.246094 37.5 198.425781 43.40625 198.515625 44.589844 C 198.515625 46.132812 198.964844 46.679688 200.140625 46.410156 C 201.3125 46.226562 201.765625 44.863281 202.125 40.226562 L 202.574219 34.316406 L 204.742188 40.042969 C 207.089844 46.226562 207.808594 47.042969 209.703125 45.953125 C 210.789062 45.316406 210.605469 44.226562 208.710938 39.5 C 206.457031 33.953125 206.457031 33.769531 208.082031 31.953125 C 210.15625 29.589844 210.425781 21.316406 208.53125 19.046875 C 206.90625 17.046875 198.695312 16.867188 197.972656 18.773438 Z M 205.914062 24.683594 C 206.277344 29.320312 206.003906 30.226562 203.839844 30.226562 C 202.394531 30.226562 202.125 29.589844 202.125 25.683594 C 202.125 21.863281 202.394531 21.136719 203.839844 21.136719 C 205.191406 21.136719 205.644531 21.953125 205.914062 24.683594 Z M 205.914062 24.683594 "/>
<path style=" stroke:none;fill-rule:nonzero;fill:rgb(0%,0%,0%);fill-opacity:1;" d="M 212.953125 31.589844 L 212.953125 45.679688 L 217.917969 45.679688 C 222.246094 45.679688 222.878906 45.496094 222.878906 43.863281 C 222.878906 42.5 222.246094 42.042969 220.261719 42.042969 C 217.375 42.042969 216.5625 40.769531 216.5625 36.136719 C 216.5625 33.5 216.921875 33.042969 219 32.773438 C 220.53125 32.59375 221.617188 31.863281 221.796875 30.863281 C 222.066406 29.679688 221.527344 29.320312 219.269531 29.320312 C 216.472656 29.320312 216.472656 29.320312 216.742188 24.953125 C 216.921875 21.953125 217.375 20.683594 218.367188 20.59375 C 219.089844 20.5 220.441406 20.410156 221.34375 20.320312 C 222.15625 20.320312 222.878906 19.59375 222.878906 18.867188 C 222.878906 17.773438 221.707031 17.503906 217.917969 17.503906 L 212.953125 17.503906 Z M 212.953125 31.589844 "/>
</g>
</svg>
