<?xml version="1.0" encoding="UTF-8"?>
<svg xmlns="http://www.w3.org/2000/svg" xmlns:xlink="http://www.w3.org/1999/xlink" width="40px" height="40px" viewBox="0 0 40 40" version="1.1">
<g id="surface1">
<path style=" stroke:none;fill-rule:nonzero;fill:rgb(0%,0%,0%);fill-opacity:1;" d="M 29.75 25.601562 L 34.644531 6.433594 L 40 6.433594 L 40 3.421875 L 32.304688 3.421875 L 31.152344 7.9375 L 0 7.917969 L 3.3125 25.601562 Z M 30.382812 10.953125 L 27.410156 22.585938 L 5.8125 22.585938 L 3.628906 10.933594 Z M 30.382812 10.953125 "/>
<path style=" stroke:none;fill-rule:nonzero;fill:rgb(0%,0%,0%);fill-opacity:1;" d="M 25.625 36.578125 C 28.285156 36.578125 30.445312 34.417969 30.445312 31.761719 C 30.445312 29.105469 28.285156 26.945312 25.625 26.945312 L 7.476562 26.945312 C 4.820312 26.945312 2.65625 29.105469 2.65625 31.761719 C 2.65625 34.417969 4.820312 36.578125 7.476562 36.578125 C 10.132812 36.578125 12.292969 34.417969 12.292969 31.761719 C 12.292969 31.125 12.167969 30.515625 11.941406 29.957031 L 21.160156 29.957031 C 20.933594 30.515625 20.808594 31.125 20.808594 31.761719 C 20.808594 34.417969 22.96875 36.578125 25.625 36.578125 Z M 9.28125 31.761719 C 9.28125 32.757812 8.46875 33.566406 7.476562 33.566406 C 6.480469 33.566406 5.667969 32.757812 5.667969 31.761719 C 5.667969 30.765625 6.480469 29.957031 7.476562 29.957031 C 8.46875 29.957031 9.28125 30.765625 9.28125 31.761719 Z M 27.429688 31.761719 C 27.429688 32.757812 26.621094 33.566406 25.625 33.566406 C 24.632812 33.566406 23.820312 32.757812 23.820312 31.761719 C 23.820312 30.765625 24.632812 29.957031 25.625 29.957031 C 26.621094 29.957031 27.429688 30.765625 27.429688 31.761719 Z M 27.429688 31.761719 "/>
</g>
</svg>
